<?xml version="1.0" encoding="UTF-8"?>
<!DOCTYPE svg PUBLIC "-//W3C//DTD SVG 1.1//EN" "http://www.w3.org/Graphics/SVG/1.1/DTD/svg11.dtd">
<!-- Creator: CorelDRAW X7 -->
<svg xmlns="http://www.w3.org/2000/svg" xml:space="preserve" width="86.1738mm" height="49.062mm" version="1.1" style="shape-rendering:geometricPrecision; text-rendering:geometricPrecision; image-rendering:optimizeQuality; fill-rule:evenodd; clip-rule:evenodd"
viewBox="0 0 3123 1778"
 xmlns:xlink="http://www.w3.org/1999/xlink">
 <defs>
  <style type="text/css">
   <![CDATA[
    .str0 {stroke:#FEFEFE;stroke-width:2.76166}
    .fil3 {fill:#FEFEFE}
    .fil0 {fill:#FEFEFE}
    .fil2 {fill:#AE2D2F}
    .fil4 {fill:#373638}
    .fil6 {fill:black}
    .fil5 {fill:white}
    .fil7 {fill:#FEFEFE;fill-rule:nonzero}
    .fil1 {fill:#FEFEFE;fill-rule:nonzero}
   ]]>
  </style>
 </defs>
 <g id="Camada_x0020_1">
  <metadata id="CorelCorpID_0Corel-Layer"/>
  <path class="fil0 str0" d="M543 1666c-107,22 -214,47 -321,76 0,5 0,11 1,16 107,-28 214,-53 321,-75 0,-5 -1,-11 -1,-17z"/>
  <path class="fil0 str0" d="M541 1655c-11,2 -19,13 -19,24 1,11 10,19 21,17 10,-3 19,-13 18,-25 0,-11 -10,-19 -20,-16z"/>
  <path class="fil0 str0" d="M2580 1666c107,22 214,47 321,76 0,5 0,11 -1,16 -107,-28 -214,-53 -321,-75 0,-5 1,-11 1,-17z"/>
  <path class="fil0 str0" d="M2582 1655c11,2 20,13 19,24 -1,11 -10,19 -21,17 -10,-3 -19,-13 -18,-25 0,-11 10,-19 20,-16z"/>
  <path class="fil1 str0" d="M710 1700l8 48 11 -2c9,-2 16,-5 20,-9 4,-5 5,-11 3,-19 -1,-9 -4,-15 -9,-18 -5,-3 -13,-3 -22,-2l-11 2zm-11 -63l7 43 11 -2c8,-1 14,-4 18,-8 3,-4 4,-10 3,-18 -1,-7 -4,-12 -9,-15 -5,-3 -12,-3 -21,-1l-9 1zm-30 -17l40 -6c17,-3 29,-2 38,3 10,5 15,14 17,27 2,9 1,17 -3,24 -4,7 -10,12 -18,15 11,0 19,3 25,8 6,6 10,14 12,24 2,15 0,26 -8,35 -8,8 -21,14 -40,17l-37 6 -26 -153zm180 -7c-10,2 -17,7 -22,18 -4,11 -5,25 -3,44 3,19 7,33 14,42 6,10 15,14 25,12 11,-1 18,-7 22,-17 4,-11 5,-26 3,-45 -2,-18 -7,-32 -14,-42 -6,-9 -15,-13 -25,-12zm-3 -21c20,-2 36,3 48,15 13,13 20,32 23,57 4,25 1,45 -8,60 -9,16 -24,24 -43,27 -20,2 -35,-3 -48,-15 -12,-13 -20,-32 -23,-57 -3,-25 0,-45 9,-61 9,-15 23,-24 42,-26zm77 -7l96 -10 3 22 -35 4 15 132 -28 3 -15 -132 -34 4 -2 -23zm120 -12l79 -7 2 21 -51 5 4 43 49 -5 2 22 -49 4 4 47 54 -5 2 22 -82 7 -14 -154zm210 -11l1 25c-5,-3 -9,-5 -14,-6 -5,-1 -10,-1 -16,-1 -13,1 -24,7 -31,17 -7,10 -10,24 -9,42 1,18 6,33 15,42 8,10 20,15 34,14 5,0 9,-1 14,-3 5,-2 9,-4 13,-7l3 25c-5,2 -10,4 -16,5 -5,1 -11,2 -17,2 -21,2 -39,-5 -53,-18 -13,-14 -21,-33 -22,-57 -2,-25 3,-44 15,-60 12,-15 28,-23 50,-24 5,0 11,0 16,0 6,1 11,2 17,4zm82 12c-10,0 -18,5 -23,16 -5,10 -7,24 -7,43 1,19 4,34 10,43 6,10 14,15 25,14 10,0 18,-5 23,-15 5,-11 7,-25 6,-44 -1,-19 -4,-34 -10,-43 -6,-10 -14,-15 -24,-14zm-1 -22c20,-1 35,6 46,19 12,14 18,33 19,59 1,25 -4,45 -14,59 -10,14 -25,22 -44,23 -20,1 -35,-6 -47,-19 -11,-13 -17,-33 -18,-58 -1,-26 3,-46 13,-60 10,-14 25,-22 45,-23zm149 -1l81 -1 0 21 -52 1 0 43 49 0 0 21 -49 1 1 47 54 0 0 21 -82 1 -2 -155zm200 21l-1 52 10 0c9,0 16,-2 20,-6 4,-3 6,-10 6,-20 0,-9 -1,-15 -5,-19 -4,-4 -11,-6 -21,-6l-9 -1zm-28 -22l36 1c19,1 33,5 42,13 9,7 13,19 13,35 -1,17 -5,28 -15,36 -9,7 -23,11 -42,10l-8 0 -2 61 -27 -1 3 -155zm117 3l27 1 -6 155 -28 -1 7 -155zm55 2l90 5 -1 24 -69 105 64 4 -2 22 -93 -5 1 -26 68 -103 -59 -4 1 -22zm109 6l90 7 -2 24 -70 103 64 5 -2 23 -94 -8 2 -25 70 -102 -59 -5 1 -22zm163 39l-28 67 42 4 -14 -71zm-13 -27l33 3 34 159 -30 -3 -6 -38 -54 -5 -14 36 -28 -2 65 -150zm124 33l-5 46 8 1c11,1 19,0 23,-3 5,-3 8,-10 9,-18 1,-8 -1,-14 -5,-17 -4,-4 -11,-7 -22,-8l-8 -1zm-25 -24l31 4c23,2 38,7 47,14 8,7 11,18 10,33 -1,10 -5,17 -10,23 -6,6 -14,9 -24,10 5,1 8,4 11,7 2,4 5,10 7,19l12 55 -29 -3 -10 -48c-1,-8 -3,-14 -6,-17 -3,-2 -7,-4 -13,-5l-8 -1 -7 66 -27 -2 16 -155zm121 14l28 3 -19 155 -27 -4 18 -154zm111 42l-33 66 41 6 -8 -72zm-11 -28l32 6 23 160 -29 -4 -4 -39 -54 -9 -16 36 -27 -5 75 -145z"/>
  <path class="fil2" d="M986 340c192,-16 383,-27 575,-27 192,0 384,9 576,27 126,11 228,130 228,256 0,84 0,169 0,253 195,33 391,72 586,126 95,26 172,131 172,226 0,58 0,116 0,175 0,58 0,116 0,174 0,95 -76,142 -172,119 -462,-111 -927,-180 -1390,-179 -463,0 -927,68 -1389,179 -96,23 -172,-24 -172,-119 0,-58 0,-116 0,-174 0,-59 0,-117 0,-175 0,-95 77,-200 172,-226 195,-54 390,-93 586,-126 0,-84 0,-169 0,-253 0,-126 102,-242 228,-256z"/>
  <path class="fil3" d="M1020 390c169,-13 383,-36 551,-36 169,0 366,18 534,33 111,11 201,115 201,225 0,74 0,196 0,270 171,29 446,78 617,125 84,23 151,116 151,199 0,51 0,102 0,153 0,52 0,103 0,154 0,83 -67,124 -151,104 -405,-97 -945,-183 -1352,-183 -406,0 -960,90 -1365,187 -85,20 -152,-11 -152,-94 0,-51 0,-103 0,-154 0,-51 0,-114 0,-165 0,-83 68,-175 152,-198 170,-47 443,-96 614,-125 0,-74 0,-196 0,-270 0,-110 90,-213 200,-225zm3 32c-93,11 -171,99 -171,193 0,74 0,196 0,270l0 27 -27 4c-172,29 -443,78 -611,124 -68,19 -128,98 -128,168 0,51 0,114 0,165 0,51 0,103 0,154 0,66 53,77 112,63 402,-97 960,-188 1373,-188 414,0 958,87 1359,184 59,14 113,-6 113,-73 0,-51 0,-102 0,-154 0,-51 0,-102 0,-153 0,-71 -60,-149 -128,-168 -168,-46 -443,-96 -614,-124l-27 -5 0 -27c0,-74 0,-196 0,-270 0,-93 -77,-184 -171,-193 -167,-15 -364,-33 -532,-33 -167,-1 -381,23 -548,36z"/>
  <polygon class="fil4" points="1482,891 1427,859 1408,810 1359,772 1408,780 1405,759 1403,712 1340,707 1254,721 1293,696 1238,672 1175,672 1216,650 1183,599 1172,555 1172,534 1134,504 1186,517 1197,488 1252,477 1254,423 1276,482 1320,493 1320,423 1340,501 1367,515 1411,455 1422,439 1362,406 1337,379 1263,374 1318,360 1293,336 1293,265 1227,233 1161,230 1211,217 1172,179 1161,163 1095,146 1156,144 1150,89 1103,54 1161,73 1169,54 1197,41 1211,41 1221,0 1235,43 1249,43 1282,62 1298,5 1301,76 1309,84 1362,138 1375,190 1414,192 1433,203 1463,144 1455,217 1474,230 1507,274 1515,303 1551,263 1521,328 1532,377 1587,366 1658,412 1664,374 1620,317 1666,347 1669,303 1694,282 1686,230 1710,265 1729,249 1765,230 1793,219 1804,144 1817,217 1853,219 1872,241 1927,211 1891,263 1908,282 1905,387 1889,404 1938,417 1872,428 1853,450 1815,471 1727,496 1735,523 1809,507 1743,547 1749,572 1815,580 1853,528 1834,585 1872,658 1864,677 1922,677 1853,702 1834,786 2034,807 1809,818 2133,853 1806,848 2177,905 1776,875 2141,945 1729,897 2064,983 1675,916 1911,997 1644,932 1751,1005 1556,924 1364,908 "/>
  <polygon class="fil5" points="1570,880 1496,872 1458,851 1441,834 1430,829 1416,799 1416,769 1416,753 1436,718 1447,707 1471,702 1485,685 1507,680 1543,683 1510,694 1581,699 1521,712 1611,723 1537,737 1617,750 1537,767 1620,783 1526,788 1614,810 1526,815 1603,837 1524,832 1587,861 1513,856 "/>
  <polygon class="fil5" points="1628,821 1631,775 1628,748 1680,699 1625,726 1617,712 1642,658 1686,618 1710,615 1735,599 1776,601 1806,620 1762,620 1831,650 1746,639 1834,677 1746,664 1831,707 1743,696 1823,734 1740,723 1809,759 1718,745 1793,786 1699,767 1757,810 1683,788 1707,821 1653,807 1677,829 "/>
  <polygon class="fil5" points="1331,696 1232,642 1200,604 1194,561 1194,539 1211,526 1216,507 1271,496 1263,512 1312,501 1287,526 1340,512 1307,550 1375,534 1326,572 1403,555 1348,593 1425,582 1362,618 1441,629 1359,642 1441,661 1356,666 1422,694 1340,680 1362,699 "/>
  <polygon class="fil5" points="1598,688 1537,647 1513,647 1496,591 1496,647 1466,650 1441,588 1386,531 1416,458 1460,417 1513,390 1570,385 1581,393 1548,398 1620,414 1567,425 1644,442 1567,450 1669,474 1570,480 1688,507 1578,504 1699,539 1578,531 1696,569 1578,553 1672,601 1581,580 1653,623 1567,601 1636,642 1565,620 1614,661 1556,642 "/>
  <polygon class="fil5" points="1718,474 1680,412 1688,336 1705,317 1727,279 1746,271 1760,249 1787,230 1820,228 1861,260 1823,260 1880,293 1817,290 1886,328 1812,322 1880,358 1801,349 1872,387 1779,374 1856,406 1768,398 1834,428 1757,423 1809,442 1735,442 1779,455 1716,458 1743,466 "/>
  <polygon class="fil5" points="1364,382 1326,336 1323,309 1312,268 1326,230 1372,203 1400,203 1411,209 1378,225 1441,228 1397,252 1471,252 1416,282 1482,279 1430,312 1496,314 1438,347 1507,344 1449,379 1504,371 1441,404 "/>
  <polygon class="fil5" points="1307,238 1216,209 1186,184 1178,163 1172,135 1167,106 1175,89 1197,62 1235,62 1219,76 1265,73 1238,87 1290,84 1260,108 1312,106 1271,125 1334,135 1279,154 1337,165 1282,176 1345,195 1287,203 1326,219 1287,222 "/>
  <polygon class="fil6" points="1430,368 1394,366 1427,385 "/>
  <polygon class="fil6" points="1254,200 1221,195 1252,214 "/>
  <polygon class="fil6" points="1790,268 1793,236 1771,268 "/>
  <polygon class="fil6" points="1735,645 1738,610 1718,645 "/>
  <polygon class="fil6" points="1342,274 1318,260 1337,284 "/>
  <polygon class="fil6" points="1208,127 1175,122 1202,138 "/>
  <polygon class="fil6" points="1241,580 1205,572 1235,591 "/>
  <polygon class="fil6" points="1496,455 1491,409 1485,452 "/>
  <polygon class="fil6" points="1488,742 1469,718 1480,745 "/>
  <polygon class="fil6" points="1806,279 1820,260 1801,268 "/>
  <polygon class="fil6" points="1372,241 1359,219 1362,249 "/>
  <polygon class="fil6" points="1348,604 1334,585 1337,612 "/>
  <polygon class="fil6" points="1570,585 1584,563 1559,580 "/>
  <polygon class="fil6" points="1221,87 1208,68 1211,92 "/>
  <polygon class="fil6" points="1246,528 1232,509 1235,534 "/>
  <polygon class="fil6" points="1556,480 1565,458 1545,474 "/>
  <polygon class="fil6" points="1485,788 1474,772 1477,791 "/>
  <polygon class="fil6" points="1718,439 1743,428 1716,431 "/>
  <polygon class="fil6" points="1650,796 1672,786 1644,786 "/>
  <polygon class="fil6" points="1202,103 1178,92 1194,108 "/>
  <polygon class="fil6" points="1243,553 1200,542 1230,561 "/>
  <polygon class="fil6" points="1537,447 1532,393 1524,436 "/>
  <polygon class="fil6" points="1518,742 1515,702 1504,734 "/>
  <polygon class="fil6" points="1444,536 1419,482 1427,539 "/>
  <polygon class="fil6" points="1474,826 1436,778 1455,832 "/>
  <polygon class="fil6" points="1707,385 1699,360 1696,396 "/>
  <polygon class="fil6" points="1666,769 1691,759 1655,759 "/>
  <polygon class="fil6" points="1287,192 1263,179 1279,198 "/>
  <polygon class="fil6" points="1356,647 1334,626 1345,653 "/>
  <polygon class="fil6" points="1551,634 1556,604 1540,626 "/>
  <polygon class="fil6" points="1729,339 1727,306 1718,341 "/>
  <polygon class="fil6" points="1658,699 1653,666 1644,702 "/>
  <polygon class="fil6" points="1378,341 1345,336 1378,355 "/>
  <polygon class="fil6" points="1323,653 1276,656 1326,669 "/>
  <polygon class="fil6" points="1480,615 1469,558 1463,604 "/>
  <polygon class="fil6" points="1732,393 1768,371 1729,382 "/>
  <polygon class="fil6" points="1666,742 1702,715 1664,726 "/>
  <polygon class="fil6" points="1436,339 1425,320 1425,341 "/>
  <polygon class="fil6" points="1219,168 1186,165 1216,179 "/>
  <polygon class="fil6" points="1252,618 1208,612 1252,631 "/>
  <polygon class="fil6" points="1463,485 1455,442 1447,482 "/>
  <polygon class="fil6" points="1449,761 1433,734 1438,769 "/>
  <polygon class="fil6" points="1776,366 1801,347 1768,355 "/>
  <polygon class="fil6" points="1718,723 1746,704 1713,715 "/>
  <polygon class="fil6" points="1416,279 1408,260 1403,282 "/>
  <polygon class="fil6" points="1282,144 1265,125 1268,146 "/>
  <polygon class="fil6" points="1315,585 1298,566 1304,588 "/>
  <polygon class="fil6" points="1532,577 1532,550 1521,572 "/>
  <polygon class="fil6" points="1485,545 1482,520 1474,539 "/>
  <polygon class="fil6" points="1493,848 1491,824 1482,843 "/>
  <polygon class="fil6" points="1776,331 1795,290 1771,309 "/>
  <polygon class="fil6" points="1677,680 1691,631 1672,658 "/>
  <polygon class="fil6" points="1386,282 1367,265 1378,290 "/>
  <polygon class="fil6" points="1249,119 1235,95 1238,122 "/>
  <polygon class="fil6" points="1285,550 1271,523 1274,561 "/>
  <polygon class="fil6" points="1567,531 1584,507 1554,526 "/>
  <polygon class="fil6" points="1751,301 1749,279 1740,298 "/>
  <polygon class="fil6" points="1716,694 1738,666 1710,680 "/>
  <polygon class="fil6" points="1386,312 1345,303 1378,320 "/>
  <polygon class="fil6" points="1249,160 1216,149 1238,168 "/>
  <polygon class="fil6" points="1290,604 1241,593 1290,618 "/>
  <polygon class="fil6" points="1521,523 1507,471 1510,528 "/>
  <polygon class="fil6" points="1515,810 1510,759 1504,815 "/>
  <path class="fil7" d="M362 1167c29,-6 59,-11 88,-16 0,-15 0,-30 0,-45 -46,8 -92,16 -138,25 0,54 0,108 0,161 0,54 0,108 0,162 46,-11 92,-21 138,-31 0,-15 0,-30 0,-45 -29,6 -59,12 -88,18 0,-31 0,-62 0,-94 23,-5 47,-9 70,-14 0,-15 0,-30 0,-45 -23,4 -47,9 -70,14 0,-30 0,-60 0,-90zm190 -78c-24,4 -48,8 -71,11 0,53 0,106 0,159 0,52 0,105 0,158 15,-3 29,-6 44,-9 0,-37 0,-74 0,-111 0,-37 0,-74 0,-111 1,0 1,0 1,-1 6,36 13,72 19,108 6,36 12,72 18,108 16,-3 32,-6 48,-9 6,-38 12,-76 17,-114 6,-38 12,-76 17,-114 1,0 1,0 1,0 0,37 0,74 0,111 0,37 0,74 0,112 16,-3 32,-6 49,-8 0,-52 0,-103 0,-154 0,-52 0,-103 0,-155 -24,3 -48,6 -71,9 -6,38 -12,76 -18,113 -5,38 -11,76 -16,114 -1,0 -1,0 -1,0 -6,-36 -13,-72 -19,-108 -6,-36 -12,-72 -18,-109zm254 -31c-25,2 -50,5 -75,8 0,51 0,102 0,154 0,51 0,102 0,154 17,-3 34,-5 51,-8 0,-19 0,-38 0,-57 0,-19 0,-38 0,-58 8,-1 16,-2 24,-2 51,-6 76,-35 76,-84 0,-13 0,-26 0,-40 0,-48 -25,-73 -76,-67zm0 43c17,-1 25,5 25,26 0,16 0,31 0,46 0,22 -8,30 -25,32 -8,1 -16,2 -24,3 0,-18 0,-35 0,-52 0,-18 0,-35 0,-52 8,-1 16,-2 24,-3zm146 13c0,-22 10,-31 27,-32 16,-1 26,6 26,28 0,27 0,54 0,81 0,27 0,54 0,82 0,21 -10,30 -26,32 -17,1 -27,-6 -27,-28 0,-27 0,-54 0,-81 0,-28 0,-55 0,-82zm-51 165c0,49 28,73 78,69 50,-5 77,-34 77,-83 0,-26 0,-52 0,-78 0,-26 0,-52 0,-78 0,-48 -27,-74 -77,-70 -50,4 -78,34 -78,82 0,27 0,53 0,79 0,27 0,53 0,79zm82 -301c-10,17 -21,34 -31,50 11,0 22,-1 34,-2 16,-17 31,-34 47,-51 -17,1 -33,2 -50,3zm264 348c-6,-11 -6,-22 -6,-36 0,-16 0,-31 0,-46 0,-31 -8,-53 -34,-62 0,0 0,0 0,-1 23,-11 34,-31 34,-61 0,-8 0,-16 0,-24 0,-46 -23,-68 -76,-65 -25,1 -51,2 -77,4 0,50 0,100 0,150 0,50 0,100 0,150 17,-1 34,-2 51,-3 0,-21 0,-41 0,-61 0,-21 0,-41 0,-61 6,-1 12,-1 18,-1 23,-2 33,8 33,36 0,16 0,31 0,47 0,24 2,29 5,36 17,-1 34,-1 52,-2zm-83 -252c18,-1 26,8 26,29 0,10 0,20 0,30 0,24 -12,32 -31,33 -6,0 -13,1 -20,1 0,-15 0,-31 0,-46 0,-15 0,-31 0,-46 8,0 17,-1 25,-1zm110 251c17,-1 34,-2 51,-2 0,-50 0,-100 0,-149 0,-50 0,-99 0,-149 -17,0 -34,1 -51,1 0,50 0,100 0,150 0,49 0,99 0,149zm135 -234c0,-21 10,-29 26,-29 16,0 26,8 26,29 0,26 0,53 0,80 0,27 0,53 0,80 0,21 -10,30 -26,30 -16,0 -26,-8 -26,-29 0,-27 0,-54 0,-80 0,-27 0,-54 0,-81zm-51 159c0,48 27,74 77,73 50,-1 77,-28 77,-75 0,-26 0,-52 0,-77 0,-26 0,-52 0,-78 0,-47 -27,-74 -77,-74 -50,1 -77,29 -77,77 0,25 0,51 0,77 0,26 0,52 0,77zm252 -157c0,17 4,32 12,47 9,14 23,29 44,47 33,27 43,43 43,65 0,21 -10,29 -26,28 -16,0 -26,-8 -26,-29 0,-7 0,-14 0,-21 -16,0 -32,0 -48,0 0,6 0,12 0,18 0,47 26,74 75,75 50,1 76,-25 76,-73 0,-17 -3,-31 -12,-46 -8,-15 -22,-31 -44,-48 -33,-27 -43,-44 -43,-65 0,-21 9,-29 25,-29 16,0 26,8 26,29 0,5 0,9 0,13 16,0 32,1 48,1 0,-3 0,-6 0,-9 0,-48 -26,-76 -75,-77 -49,0 -75,27 -75,74zm230 -24c29,1 58,2 88,4 0,-15 0,-29 0,-43 -46,-2 -92,-4 -139,-5 0,49 0,99 0,149 0,49 0,99 0,149 47,1 93,3 139,6 0,-15 0,-29 0,-43 -30,-2 -59,-3 -88,-4 0,-29 0,-58 0,-87 23,0 46,1 70,3 0,-15 0,-29 0,-43 -24,-1 -47,-2 -70,-3 0,-28 0,-55 0,-83zm277 273c-5,-11 -5,-22 -5,-37 0,-15 0,-31 0,-46 0,-32 -8,-55 -34,-67 0,0 0,0 0,-1 23,-8 33,-27 33,-58 0,-8 0,-16 0,-23 0,-47 -22,-71 -75,-75 -26,-1 -51,-2 -77,-4 0,50 0,100 0,150 0,50 0,100 0,149 17,2 34,3 51,4 0,-21 0,-41 0,-61 0,-21 0,-41 0,-61 6,0 12,0 18,1 23,1 33,12 33,40 0,16 0,32 0,48 0,24 2,29 5,37 17,1 34,3 51,4zm-82 -264c18,1 26,11 26,33 0,10 0,20 0,29 0,24 -12,31 -31,30 -7,0 -13,-1 -20,-1 0,-16 0,-31 0,-46 0,-16 0,-31 0,-46 8,0 16,1 25,1zm95 7c18,1 36,3 53,4 0,43 0,87 0,130 0,43 0,86 0,129 17,2 34,4 51,6 0,-43 0,-87 0,-130 0,-44 0,-87 0,-130 18,1 36,3 53,5 0,-15 0,-29 0,-44 -52,-5 -104,-9 -157,-13 0,14 0,28 0,43zm226 48c0,-22 10,-29 26,-27 17,2 27,11 27,33 0,28 0,56 0,84 0,27 0,55 0,83 0,22 -10,29 -27,27 -16,-3 -26,-12 -26,-34 0,-28 0,-56 0,-83 0,-28 0,-55 0,-83zm-51 156c0,49 28,80 77,87 50,8 78,-16 78,-66 0,-27 0,-53 0,-80 0,-27 0,-54 0,-81 0,-49 -28,-81 -78,-87 -49,-6 -77,20 -77,68 0,27 0,53 0,80 0,26 0,53 0,79zm96 -271c-5,-1 -10,-3 -17,-7 -9,-5 -16,-8 -25,-9 -18,-2 -31,7 -39,26 8,6 17,12 25,19 4,-9 9,-12 19,-11 6,1 10,3 18,7 10,6 17,8 24,9 19,2 32,-6 39,-25 -8,-7 -16,-13 -24,-20 -5,9 -10,12 -20,11zm142 113c30,4 59,9 88,14 0,-15 0,-30 0,-45 -46,-8 -92,-14 -139,-21 0,52 0,104 0,155 0,52 0,104 0,156 47,8 93,16 139,25 0,-15 0,-30 0,-45 -29,-5 -58,-11 -88,-16 0,-30 0,-61 0,-91 24,3 47,7 70,12 0,-15 0,-30 0,-45 -23,-4 -46,-8 -70,-12 0,-29 0,-58 0,-87zm113 49c0,18 3,34 12,51 8,18 23,36 44,59 33,35 43,55 43,78 0,23 -10,29 -26,26 -16,-4 -26,-14 -26,-37 0,-7 0,-15 0,-23 -16,-3 -32,-6 -48,-9 0,6 0,13 0,19 0,51 26,85 75,96 50,11 76,-12 76,-63 0,-19 -3,-36 -12,-53 -8,-18 -23,-37 -44,-60 -33,-36 -43,-55 -43,-78 0,-23 9,-30 25,-27 16,3 26,14 26,36 0,5 0,9 0,14 16,3 32,6 48,9 0,-3 0,-6 0,-10 0,-51 -26,-86 -75,-95 -50,-9 -75,16 -75,67z"/>
  <path class="fil7" d="M993 835l21 0c14,0 20,-7 20,-21l0 -43c0,-14 -6,-21 -20,-21l-21 0 0 85zm21 -73c4,0 7,2 7,8l0 45c0,6 -3,8 -7,8l-8 0 0 -61 8 0zm42 0l23 0 0 -12 -36 0 0 85 36 0 0 -12 -23 0 0 -25 18 0 0 -12 -18 0 0 -24zm30 8c0,10 3,17 14,27 9,8 12,12 12,19 0,6 -3,8 -7,8 -4,0 -7,-2 -7,-8l0 -7 -13 0 0 6c0,13 7,21 20,21 13,0 20,-8 20,-21 0,-10 -3,-17 -14,-27 -9,-8 -12,-12 -12,-18 0,-6 3,-9 7,-9 4,0 7,3 7,9l0 3 12 0 0 -3c0,-13 -7,-21 -20,-21 -13,0 -19,8 -19,21zm47 65l21 0c14,0 20,-7 20,-21l0 -43c0,-14 -6,-21 -20,-21l-21 0 0 85zm21 -73c4,0 7,2 7,8l0 45c0,6 -3,8 -7,8l-8 0 0 -61 8 0zm42 0l23 0 0 -12 -36 0 0 85 36 0 0 -12 -23 0 0 -25 18 0 0 -12 -18 0 0 -24z"/>
  <path class="fil7" d="M1983 771c0,9 -3,16 -13,27 -10,10 -14,17 -14,27l0 10 39 0 0 -12 -25 0c0,-1 0,-1 0,-2 0,-4 2,-8 10,-17 12,-13 16,-22 16,-34 0,-13 -7,-21 -20,-21 -13,0 -20,8 -20,21l0 9 13 0 0 -9c0,-6 3,-9 7,-9 4,0 7,2 7,10zm34 -1c0,-6 3,-9 7,-9 4,0 7,3 7,9l0 46c0,6 -3,8 -7,8 -4,0 -7,-2 -7,-8l0 -46zm-14 45c0,13 8,21 21,21 13,0 20,-8 20,-21l0 -45c0,-13 -7,-21 -20,-21 -13,0 -21,8 -21,21l0 45zm58 -45l10 0 0 65 14 0 0 -85 -9 0c-2,6 -5,11 -15,11l0 9zm37 50l25 0 0 15 14 0 0 -15 6 0 0 -12 -6 0 0 -58 -15 0 -24 58 0 12zm12 -12l13 -32 0 0 0 32 -13 0z"/>
 </g>
</svg>
