<?xml version="1.0" encoding="UTF-8"?>
<!DOCTYPE svg PUBLIC "-//W3C//DTD SVG 1.1//EN" "http://www.w3.org/Graphics/SVG/1.1/DTD/svg11.dtd">
<!-- Creator: CorelDRAW X7 -->
<svg xmlns="http://www.w3.org/2000/svg" xml:space="preserve" width="74.0166mm" height="74.664mm" version="1.1" style="shape-rendering:geometricPrecision; text-rendering:geometricPrecision; image-rendering:optimizeQuality; fill-rule:evenodd; clip-rule:evenodd"
viewBox="0 0 8877 8955"
 xmlns:xlink="http://www.w3.org/1999/xlink">
 <defs>
  <style type="text/css">
   <![CDATA[
    .fil1 {fill:white}
    .fil0 {fill:url(#id0)}
   ]]>
  </style>
  <linearGradient id="id0" gradientUnits="userSpaceOnUse" x1="4464.73" y1="8799.44" x2="4464.73" y2="140.393">
   <stop offset="0" style="stop-opacity:1; stop-color:#20B038"/>
   <stop offset="1" style="stop-opacity:1; stop-color:#60D66A"/>
  </linearGradient>
 </defs>
 <g id="Camada_x0020_1">
  <metadata id="CorelCorpID_0Corel-Layer"/>
  <g id="_1726065504928">
   <path class="fil0" d="M155 8799l609 -2223c-376,-651 -574,-1389 -573,-2145 1,-2366 1926,-4291 4292,-4291 1148,1 2226,448 3036,1259 810,811 1256,1889 1256,3035 -1,2366 -1927,4291 -4292,4291 0,0 0,0 0,0l-2 0c-718,0 -1424,-181 -2051,-522l-2275 596 0 0z"/>
   <path class="fil1" d="M3372 2571c-83,-185 -171,-188 -250,-191 -65,-3 -139,-3 -213,-3 -74,0 -194,28 -296,139 -102,111 -389,380 -389,926 0,547 398,1075 454,1149 55,74 768,1232 1898,1677 938,370 1129,297 1333,278 203,-18 657,-269 750,-528 92,-259 92,-482 64,-528 -27,-46 -102,-74 -213,-130 -111,-55 -657,-324 -759,-361 -102,-37 -176,-56 -250,55 -74,112 -287,362 -351,436 -65,74 -130,83 -241,28 -111,-56 -469,-173 -893,-552 -331,-294 -554,-658 -618,-769 -65,-111 -7,-171 48,-227 50,-49 111,-129 167,-194 55,-65 74,-111 111,-185 37,-75 18,-139 -9,-195 -28,-55 -244,-605 -343,-825l0 0z"/>
   <path class="fil1" d="M7632 1341c-840,-840 -1951,-1340 -3140,-1341 -2451,0 -4454,1979 -4455,4429 0,784 205,1548 594,2223l-631 2303 2404 -643c674,352 1348,510 2092,510 358,-4 714,-43 1064,-137 1059,-244 2452,-1152 3050,-2731 355,-1048 611,-2926 -978,-4613zm-3149 6786l-1 0c-663,0 -1314,-178 -1881,-515l-135 -80 -1399 367 374 -1364 -88 -139c-370,-588 -565,-1268 -565,-1966 1,-2037 1658,-3694 3697,-3694 987,0 1915,385 2612,1083 698,698 1082,1627 1082,2614 -1,2037 -1659,3694 -3696,3694l0 0z"/>
  </g>
 </g>
</svg>
